<svg fill="none" height="16" viewBox="0 0 16 16" width="16" xmlns="http://www.w3.org/2000/svg"><g fill="#fbf4f4"><path d="m6.79 5.093c-.07476-.05323-.16274-.08486-.25428-.09142-.09154-.00655-.18313.01221-.26471.05424-.08159.04204-.15003.10572-.19784.18406-.0478.07835-.07311.16834-.07317.26012v5c.00006.0918.02537.1818.07317.2601.04781.0784.11625.142.19784.1841.08158.042.17317.0608.26471.0542.09154-.0065.17952-.0382.25428-.0914l3.5-2.5c.0648-.04626.1176-.10732.1541-.17811s.0555-.14927.0555-.22889c0-.07963-.019-.1581-.0555-.2289-.0365-.07079-.0893-.13185-.1541-.1781z"/><path d="m0 4c0-.53043.210714-1.03914.585786-1.41421.375073-.37508.883784-.58579 1.414214-.58579h12c.5304 0 1.0391.21071 1.4142.58579.3751.37507.5858.88378.5858 1.41421v8c0 .5304-.2107 1.0391-.5858 1.4142s-.8838.5858-1.4142.5858h-12c-.53043 0-1.039141-.2107-1.414214-.5858-.375072-.3751-.585786-.8838-.585786-1.4142zm15 0c0-.26522-.1054-.51957-.2929-.70711-.1875-.18753-.4419-.29289-.7071-.29289h-12c-.26522 0-.51957.10536-.70711.29289-.18753.18754-.29289.44189-.29289.70711v8c0 .2652.10536.5196.29289.7071.18754.1875.44189.2929.70711.2929h12c.2652 0 .5196-.1054.7071-.2929s.2929-.4419.2929-.7071z"/></g></svg>