<svg width="424" height="167" viewBox="0 0 424 167" fill="none" xmlns="http://www.w3.org/2000/svg">
<mask id="path-1-outside-1_22_14" maskUnits="userSpaceOnUse" x="0.296875" y="0" width="424" height="167" fill="black">
<rect fill="white" x="0.296875" width="424" height="167"/>
<path d="M62.7969 104.75L63.0469 96V87.25C63.0469 67.75 56.7135 58 44.0469 58C38.5469 58 34.2135 59.9167 31.0469 63.75C28.0469 67.4167 26.5469 71.75 26.5469 76.75C26.5469 81.75 27.2135 86.0833 28.5469 89.75C25.7135 92.25 21.7969 93.5 16.7969 93.5C11.7969 93.5 9.29688 89.4167 9.29688 81.25C9.29688 73.0833 12.4635 66.1667 18.7969 60.5C25.2969 54.8333 34.4635 52 46.2969 52C69.4635 52 81.0469 65.6667 81.0469 93V144.25C81.0469 153.25 83.5469 157.75 88.5469 157.75C90.8802 157.75 92.8802 156.667 94.5469 154.5C96.3802 152.333 97.2969 149.833 97.2969 147C97.2969 144.167 97.0469 141.5 96.5469 139L101.297 138.25C101.964 140.75 102.297 143.5 102.297 146.5C102.297 152.5 100.464 157.25 96.7969 160.75C93.2969 164.25 88.6302 166 82.7969 166C76.9636 166 72.2135 163.667 68.5469 159C64.8802 154.167 63.0469 147 63.0469 137.5V133C60.2135 144.333 55.7135 152.667 49.5469 158C43.3802 163.333 36.2135 166 28.0469 166C20.0469 166 13.5469 163.5 8.54688 158.5C3.71354 153.333 1.29688 146.583 1.29688 138.25C1.29688 129.75 5.21354 122.25 13.0469 115.75C20.8802 109.083 32.1302 105.75 46.7969 105.75C49.9635 105.75 55.2969 106.167 62.7969 107V104.75ZM33.7969 156.5C40.7969 156.5 47.0469 152.583 52.5469 144.75C58.2135 136.75 61.5469 125.583 62.5469 111.25C60.8802 111.083 58.5469 111 55.5469 111C42.2135 111 32.6302 113.833 26.7969 119.5C21.1302 125 18.2969 131.417 18.2969 138.75C18.2969 143.583 19.7135 147.75 22.5469 151.25C25.3802 154.75 29.1302 156.5 33.7969 156.5Z"/>
<path d="M219.043 90V155.5C219.043 157.5 220.21 158.5 222.543 158.5H234.293V163H189.293V158.5H197.543C199.876 158.5 201.043 157.5 201.043 155.5V86.75C201.043 78.25 199.126 72 195.293 68C191.626 63.8333 186.71 61.75 180.543 61.75C171.876 61.75 164.71 66.9167 159.043 77.25C153.376 87.4167 150.543 102.083 150.543 121.25V155C150.543 157.333 151.71 158.5 154.043 158.5H162.293V163H117.293V158.5H129.043C131.376 158.5 132.543 157.5 132.543 155.5V63C132.543 60.6667 131.376 59.5 129.043 59.5H117.293V55H129.543C139.543 55 146.543 54.5 150.543 53.5V87.5C156.21 63.8333 168.71 52 188.043 52C196.71 52 204.043 55.1667 210.043 61.5C216.043 67.6667 219.043 77.1667 219.043 90Z"/>
<path d="M277.506 28.5H281.256V55H306.256V59.5H281.256V144.25C281.256 153.25 283.756 157.75 288.756 157.75C291.089 157.75 293.089 156.667 294.756 154.5C296.589 152.333 297.506 149.833 297.506 147C297.506 144.167 297.256 141.5 296.756 139L301.506 138.25C302.173 140.75 302.506 143.5 302.506 146.5C302.506 152.5 300.673 157.25 297.006 160.75C293.506 164.25 288.839 166 283.006 166C277.173 166 272.423 163.667 268.756 159C265.089 154.167 263.256 147 263.256 137.5V63C263.256 60.6667 262.089 59.5 259.756 59.5H248.006V55H260.256C265.589 55 271.339 46.1667 277.506 28.5Z"/>
<path d="M335.365 150.75C326.032 140.583 321.365 126.667 321.365 109C321.365 91.3333 326.032 77.4167 335.365 67.25C344.699 57.0833 356.865 52 371.865 52C386.865 52 399.032 57.0833 408.365 67.25C417.865 77.4167 422.615 91.3333 422.615 109C422.615 126.667 417.865 140.583 408.365 150.75C399.032 160.917 386.865 166 371.865 166C356.865 166 344.699 160.917 335.365 150.75ZM349.365 71.5C343.365 80.6667 340.365 93.1667 340.365 109C340.365 124.833 343.365 137.417 349.365 146.75C355.365 155.917 362.865 160.5 371.865 160.5C380.865 160.5 388.365 155.917 394.365 146.75C400.532 137.417 403.615 124.833 403.615 109C403.615 93.1667 400.532 80.6667 394.365 71.5C388.365 62.1667 380.865 57.5 371.865 57.5C362.865 57.5 355.365 62.1667 349.365 71.5ZM367.865 9.5L385.615 43L381.615 46L348.115 12.5C348.115 8.66666 349.032 5.83333 350.865 3.99999C352.699 2 354.782 1 357.115 1C361.282 1 364.865 3.83333 367.865 9.5Z"/>
</mask>
<path d="M62.7969 104.75L63.0469 96V87.25C63.0469 67.75 56.7135 58 44.0469 58C38.5469 58 34.2135 59.9167 31.0469 63.75C28.0469 67.4167 26.5469 71.75 26.5469 76.75C26.5469 81.75 27.2135 86.0833 28.5469 89.75C25.7135 92.25 21.7969 93.5 16.7969 93.5C11.7969 93.5 9.29688 89.4167 9.29688 81.25C9.29688 73.0833 12.4635 66.1667 18.7969 60.5C25.2969 54.8333 34.4635 52 46.2969 52C69.4635 52 81.0469 65.6667 81.0469 93V144.25C81.0469 153.25 83.5469 157.75 88.5469 157.75C90.8802 157.75 92.8802 156.667 94.5469 154.5C96.3802 152.333 97.2969 149.833 97.2969 147C97.2969 144.167 97.0469 141.5 96.5469 139L101.297 138.25C101.964 140.75 102.297 143.5 102.297 146.5C102.297 152.5 100.464 157.25 96.7969 160.75C93.2969 164.25 88.6302 166 82.7969 166C76.9636 166 72.2135 163.667 68.5469 159C64.8802 154.167 63.0469 147 63.0469 137.5V133C60.2135 144.333 55.7135 152.667 49.5469 158C43.3802 163.333 36.2135 166 28.0469 166C20.0469 166 13.5469 163.5 8.54688 158.5C3.71354 153.333 1.29688 146.583 1.29688 138.25C1.29688 129.75 5.21354 122.25 13.0469 115.75C20.8802 109.083 32.1302 105.75 46.7969 105.75C49.9635 105.75 55.2969 106.167 62.7969 107V104.75ZM33.7969 156.5C40.7969 156.5 47.0469 152.583 52.5469 144.75C58.2135 136.75 61.5469 125.583 62.5469 111.25C60.8802 111.083 58.5469 111 55.5469 111C42.2135 111 32.6302 113.833 26.7969 119.5C21.1302 125 18.2969 131.417 18.2969 138.75C18.2969 143.583 19.7135 147.75 22.5469 151.25C25.3802 154.75 29.1302 156.5 33.7969 156.5Z" fill="#270808"/>
<path d="M219.043 90V155.5C219.043 157.5 220.21 158.5 222.543 158.5H234.293V163H189.293V158.5H197.543C199.876 158.5 201.043 157.5 201.043 155.5V86.75C201.043 78.25 199.126 72 195.293 68C191.626 63.8333 186.71 61.75 180.543 61.75C171.876 61.75 164.71 66.9167 159.043 77.25C153.376 87.4167 150.543 102.083 150.543 121.25V155C150.543 157.333 151.71 158.5 154.043 158.5H162.293V163H117.293V158.5H129.043C131.376 158.5 132.543 157.5 132.543 155.5V63C132.543 60.6667 131.376 59.5 129.043 59.5H117.293V55H129.543C139.543 55 146.543 54.5 150.543 53.5V87.5C156.21 63.8333 168.71 52 188.043 52C196.71 52 204.043 55.1667 210.043 61.5C216.043 67.6667 219.043 77.1667 219.043 90Z" fill="#270808"/>
<path d="M277.506 28.5H281.256V55H306.256V59.5H281.256V144.25C281.256 153.25 283.756 157.75 288.756 157.75C291.089 157.75 293.089 156.667 294.756 154.5C296.589 152.333 297.506 149.833 297.506 147C297.506 144.167 297.256 141.5 296.756 139L301.506 138.25C302.173 140.75 302.506 143.5 302.506 146.5C302.506 152.5 300.673 157.25 297.006 160.75C293.506 164.25 288.839 166 283.006 166C277.173 166 272.423 163.667 268.756 159C265.089 154.167 263.256 147 263.256 137.5V63C263.256 60.6667 262.089 59.5 259.756 59.5H248.006V55H260.256C265.589 55 271.339 46.1667 277.506 28.5Z" fill="#270808"/>
<path d="M335.365 150.75C326.032 140.583 321.365 126.667 321.365 109C321.365 91.3333 326.032 77.4167 335.365 67.25C344.699 57.0833 356.865 52 371.865 52C386.865 52 399.032 57.0833 408.365 67.25C417.865 77.4167 422.615 91.3333 422.615 109C422.615 126.667 417.865 140.583 408.365 150.75C399.032 160.917 386.865 166 371.865 166C356.865 166 344.699 160.917 335.365 150.75ZM349.365 71.5C343.365 80.6667 340.365 93.1667 340.365 109C340.365 124.833 343.365 137.417 349.365 146.75C355.365 155.917 362.865 160.5 371.865 160.5C380.865 160.5 388.365 155.917 394.365 146.75C400.532 137.417 403.615 124.833 403.615 109C403.615 93.1667 400.532 80.6667 394.365 71.5C388.365 62.1667 380.865 57.5 371.865 57.5C362.865 57.5 355.365 62.1667 349.365 71.5ZM367.865 9.5L385.615 43L381.615 46L348.115 12.5C348.115 8.66666 349.032 5.83333 350.865 3.99999C352.699 2 354.782 1 357.115 1C361.282 1 364.865 3.83333 367.865 9.5Z" fill="#270808"/>
<path d="M62.7969 104.75L63.0469 96V87.25C63.0469 67.75 56.7135 58 44.0469 58C38.5469 58 34.2135 59.9167 31.0469 63.75C28.0469 67.4167 26.5469 71.75 26.5469 76.75C26.5469 81.75 27.2135 86.0833 28.5469 89.75C25.7135 92.25 21.7969 93.5 16.7969 93.5C11.7969 93.5 9.29688 89.4167 9.29688 81.25C9.29688 73.0833 12.4635 66.1667 18.7969 60.5C25.2969 54.8333 34.4635 52 46.2969 52C69.4635 52 81.0469 65.6667 81.0469 93V144.25C81.0469 153.25 83.5469 157.75 88.5469 157.75C90.8802 157.75 92.8802 156.667 94.5469 154.5C96.3802 152.333 97.2969 149.833 97.2969 147C97.2969 144.167 97.0469 141.5 96.5469 139L101.297 138.25C101.964 140.75 102.297 143.5 102.297 146.5C102.297 152.5 100.464 157.25 96.7969 160.75C93.2969 164.25 88.6302 166 82.7969 166C76.9636 166 72.2135 163.667 68.5469 159C64.8802 154.167 63.0469 147 63.0469 137.5V133C60.2135 144.333 55.7135 152.667 49.5469 158C43.3802 163.333 36.2135 166 28.0469 166C20.0469 166 13.5469 163.5 8.54688 158.5C3.71354 153.333 1.29688 146.583 1.29688 138.25C1.29688 129.75 5.21354 122.25 13.0469 115.75C20.8802 109.083 32.1302 105.75 46.7969 105.75C49.9635 105.75 55.2969 106.167 62.7969 107V104.75ZM33.7969 156.5C40.7969 156.5 47.0469 152.583 52.5469 144.75C58.2135 136.75 61.5469 125.583 62.5469 111.25C60.8802 111.083 58.5469 111 55.5469 111C42.2135 111 32.6302 113.833 26.7969 119.5C21.1302 125 18.2969 131.417 18.2969 138.75C18.2969 143.583 19.7135 147.75 22.5469 151.25C25.3802 154.75 29.1302 156.5 33.7969 156.5Z" stroke="#270808" stroke-width="2" mask="url(#path-1-outside-1_22_14)"/>
<path d="M219.043 90V155.5C219.043 157.5 220.21 158.5 222.543 158.5H234.293V163H189.293V158.5H197.543C199.876 158.5 201.043 157.5 201.043 155.5V86.75C201.043 78.25 199.126 72 195.293 68C191.626 63.8333 186.71 61.75 180.543 61.75C171.876 61.75 164.71 66.9167 159.043 77.25C153.376 87.4167 150.543 102.083 150.543 121.25V155C150.543 157.333 151.71 158.5 154.043 158.5H162.293V163H117.293V158.5H129.043C131.376 158.5 132.543 157.5 132.543 155.5V63C132.543 60.6667 131.376 59.5 129.043 59.5H117.293V55H129.543C139.543 55 146.543 54.5 150.543 53.5V87.5C156.21 63.8333 168.71 52 188.043 52C196.71 52 204.043 55.1667 210.043 61.5C216.043 67.6667 219.043 77.1667 219.043 90Z" stroke="#270808" stroke-width="2" mask="url(#path-1-outside-1_22_14)"/>
<path d="M277.506 28.5H281.256V55H306.256V59.5H281.256V144.25C281.256 153.25 283.756 157.75 288.756 157.75C291.089 157.75 293.089 156.667 294.756 154.5C296.589 152.333 297.506 149.833 297.506 147C297.506 144.167 297.256 141.5 296.756 139L301.506 138.25C302.173 140.75 302.506 143.5 302.506 146.5C302.506 152.5 300.673 157.25 297.006 160.75C293.506 164.25 288.839 166 283.006 166C277.173 166 272.423 163.667 268.756 159C265.089 154.167 263.256 147 263.256 137.5V63C263.256 60.6667 262.089 59.5 259.756 59.5H248.006V55H260.256C265.589 55 271.339 46.1667 277.506 28.5Z" stroke="#270808" stroke-width="2" mask="url(#path-1-outside-1_22_14)"/>
<path d="M335.365 150.75C326.032 140.583 321.365 126.667 321.365 109C321.365 91.3333 326.032 77.4167 335.365 67.25C344.699 57.0833 356.865 52 371.865 52C386.865 52 399.032 57.0833 408.365 67.25C417.865 77.4167 422.615 91.3333 422.615 109C422.615 126.667 417.865 140.583 408.365 150.75C399.032 160.917 386.865 166 371.865 166C356.865 166 344.699 160.917 335.365 150.75ZM349.365 71.5C343.365 80.6667 340.365 93.1667 340.365 109C340.365 124.833 343.365 137.417 349.365 146.75C355.365 155.917 362.865 160.5 371.865 160.5C380.865 160.5 388.365 155.917 394.365 146.75C400.532 137.417 403.615 124.833 403.615 109C403.615 93.1667 400.532 80.6667 394.365 71.5C388.365 62.1667 380.865 57.5 371.865 57.5C362.865 57.5 355.365 62.1667 349.365 71.5ZM367.865 9.5L385.615 43L381.615 46L348.115 12.5C348.115 8.66666 349.032 5.83333 350.865 3.99999C352.699 2 354.782 1 357.115 1C361.282 1 364.865 3.83333 367.865 9.5Z" stroke="#270808" stroke-width="2" mask="url(#path-1-outside-1_22_14)"/>
</svg>
