   <svg class="creative_developer" width="691" height="87" viewBox="0 0 691 87" fill="none" xmlns="http://www.w3.org/2000/svg">
          <mask id="path-1-outside-1_25_25" maskUnits="userSpaceOnUse" x="0.359985" y="0.216064" width="691" height="87" fill="black">
          <rect fill="white" x="0.359985" y="0.216064" width="691" height="87"/>
          <path d="M45.904 65.0001L45.808 63.6561C45.744 62.3121 45.232 61.6401 44.272 61.6401C43.76 61.6401 42.832 61.9921 41.488 62.6961C37.328 65.0001 33.136 66.1521 28.912 66.1521C20.848 66.1521 14.224 63.3681 9.03999 57.8001C3.91999 52.2321 1.35999 44.5841 1.35999 34.8561C1.35999 25.0641 3.88798 17.3841 8.94399 11.8161C14.064 6.18407 20.72 3.36807 28.912 3.36807C33.072 3.36807 37.232 4.42407 41.392 6.53607C42.736 7.24006 43.696 7.59206 44.272 7.59206C45.232 7.59206 45.744 6.92006 45.808 5.57607L45.904 3.94407H47.728V20.5521H46C45.424 15.6241 43.568 12.0081 40.432 9.70407C37.36 7.33607 33.52 6.15207 28.912 6.15207C23.088 6.15207 18.384 8.71206 14.8 13.8321C11.28 18.9521 9.51999 25.9601 9.51999 34.8561C9.51999 43.7521 11.312 50.7281 14.896 55.7841C18.48 60.8401 23.152 63.3681 28.912 63.3681C33.52 63.3681 37.36 62.2161 40.432 59.9121C43.568 57.5441 45.424 53.8961 46 48.9681H47.728V65.0001H45.904Z"/>
          <path d="M80.4137 22.3761C82.9097 22.3761 84.9257 23.4321 86.4617 25.5441C88.0617 27.6561 88.8617 30.3121 88.8617 33.5121C88.8617 36.7121 87.5497 38.3121 84.9257 38.3121C83.3897 38.3121 82.1417 37.8321 81.1817 36.8721C82.0137 35.0161 82.4297 33.1281 82.4297 31.2081C82.4297 27.8161 81.0217 26.1201 78.2057 26.1201C75.8377 26.1201 73.7257 28.1041 71.8697 32.0721C70.0777 35.9761 69.1817 41.6721 69.1817 49.1601V61.9281C69.1817 62.8241 69.6297 63.2721 70.5257 63.2721H76.9577V65.0001H56.4137V63.2721H60.9257C61.8217 63.2721 62.2697 62.8241 62.2697 61.9281V26.6001C62.2697 25.7041 61.8217 25.2561 60.9257 25.2561H56.4137V23.5281H61.1177C64.9577 23.5281 67.6457 23.3361 69.1817 22.9521V35.2401C70.2057 30.8241 71.7097 27.5921 73.6937 25.5441C75.6777 23.4321 77.9177 22.3761 80.4137 22.3761Z"/>
          <path d="M112.544 22.3761C116.96 22.3761 120.448 23.8481 123.008 26.7921C125.568 29.7361 126.848 34.0561 126.848 39.7521C126.848 40.9041 126.784 42.1841 126.656 43.5921H100.448V44.2641C100.448 50.3441 101.536 55.1441 103.712 58.6641C105.952 62.1201 108.8 63.8481 112.256 63.8481C115.776 63.8481 118.656 62.9521 120.896 61.1601C123.136 59.3681 124.672 56.8081 125.504 53.4801L127.328 53.8641C126.56 57.7681 124.8 60.8081 122.048 62.9841C119.296 65.0961 116.128 66.1521 112.544 66.1521C106.976 66.1521 102.336 64.2001 98.6245 60.2961C94.9765 56.3921 93.1525 51.0801 93.1525 44.3601C93.1525 37.5761 95.0085 32.2321 98.7205 28.3281C102.432 24.3601 107.04 22.3761 112.544 22.3761ZM120.224 36.4881C120.224 28.6161 117.28 24.6801 111.392 24.6801C108.448 24.6801 105.92 26.2801 103.808 29.4801C101.76 32.6801 100.672 36.7441 100.544 41.6721H119.84C120.096 39.4961 120.224 37.7681 120.224 36.4881Z"/>
          <path d="M159.143 42.6321L159.239 39.2721V35.9121C159.239 28.4241 156.807 24.6801 151.943 24.6801C149.831 24.6801 148.167 25.4161 146.951 26.8881C145.799 28.2961 145.223 29.9601 145.223 31.8801C145.223 33.8001 145.479 35.4641 145.991 36.8721C144.903 37.8321 143.399 38.3121 141.479 38.3121C139.559 38.3121 138.599 36.7441 138.599 33.6081C138.599 30.4721 139.815 27.8161 142.247 25.6401C144.743 23.4641 148.263 22.3761 152.807 22.3761C161.703 22.3761 166.151 27.6241 166.151 38.1201V57.8001C166.151 61.2561 167.111 62.9841 169.031 62.9841C169.927 62.9841 170.695 62.5681 171.335 61.7361C172.039 60.9041 172.391 59.9441 172.391 58.8561C172.391 57.7681 172.295 56.7441 172.103 55.7841L173.927 55.4961C174.183 56.4561 174.311 57.5121 174.311 58.6641C174.311 60.9681 173.607 62.7921 172.199 64.1361C170.855 65.4801 169.063 66.1521 166.823 66.1521C164.583 66.1521 162.759 65.2561 161.351 63.4641C159.943 61.6081 159.239 58.8561 159.239 55.2081V53.4801C158.151 57.8321 156.423 61.0321 154.055 63.0801C151.687 65.1281 148.935 66.1521 145.799 66.1521C142.727 66.1521 140.231 65.1921 138.311 63.2721C136.455 61.2881 135.527 58.6961 135.527 55.4961C135.527 52.2321 137.031 49.3521 140.039 46.8561C143.047 44.2961 147.367 43.0161 152.999 43.0161C154.215 43.0161 156.263 43.1761 159.143 43.4961V42.6321ZM148.007 62.5041C150.695 62.5041 153.095 61.0001 155.207 57.9921C157.383 54.9201 158.663 50.6321 159.047 45.1281C158.407 45.0641 157.511 45.0321 156.359 45.0321C151.239 45.0321 147.559 46.1201 145.319 48.2961C143.143 50.4081 142.055 52.8721 142.055 55.6881C142.055 57.5441 142.599 59.1441 143.687 60.4881C144.775 61.8321 146.215 62.5041 148.007 62.5041Z"/>
          <path d="M188.998 13.3521H190.438V23.5281H200.038V25.2561H190.438V57.8001C190.438 61.2561 191.398 62.9841 193.318 62.9841C194.214 62.9841 194.982 62.5681 195.622 61.7361C196.326 60.9041 196.678 59.9441 196.678 58.8561C196.678 57.7681 196.582 56.7441 196.39 55.7841L198.214 55.4961C198.47 56.4561 198.598 57.5121 198.598 58.6641C198.598 60.9681 197.894 62.7921 196.486 64.1361C195.142 65.4801 193.35 66.1521 191.11 66.1521C188.87 66.1521 187.046 65.2561 185.638 63.4641C184.23 61.6081 183.526 58.8561 183.526 55.2081V26.6001C183.526 25.7041 183.078 25.2561 182.182 25.2561H177.67V23.5281H182.374C184.422 23.5281 186.63 20.1361 188.998 13.3521Z"/>
          <path d="M212.176 61.9281V26.6001C212.176 25.7041 211.728 25.2561 210.832 25.2561H206.32V23.5281H211.024C214.864 23.5281 217.552 23.3361 219.088 22.9521V62.1201C219.088 62.8881 219.536 63.2721 220.432 63.2721H224.944V65.0001H206.32V63.2721H210.832C211.728 63.2721 212.176 62.8241 212.176 61.9281ZM212.368 12.9681C211.536 12.0721 211.12 10.9841 211.12 9.70407C211.12 8.42407 211.536 7.36807 212.368 6.53607C213.264 5.64007 214.352 5.19207 215.632 5.19207C216.912 5.19207 217.968 5.64007 218.8 6.53607C219.696 7.36807 220.144 8.42407 220.144 9.70407C220.144 10.9841 219.696 12.0721 218.8 12.9681C217.968 13.8001 216.912 14.2161 215.632 14.2161C214.352 14.2161 213.264 13.8001 212.368 12.9681Z"/>
          <path d="M255.621 23.5281H267.813V25.2561H264.261C263.685 25.2561 263.237 25.7041 262.917 26.6001L248.613 65.0001H246.021L231.717 26.6001C231.397 25.7041 230.949 25.2561 230.373 25.2561H226.821V23.5281H243.141V25.2561H238.341L249.381 55.5921L260.517 25.2561H255.621V23.5281Z"/>
          <path d="M290.107 22.3761C294.523 22.3761 298.011 23.8481 300.571 26.7921C303.131 29.7361 304.411 34.0561 304.411 39.7521C304.411 40.9041 304.347 42.1841 304.219 43.5921H278.011V44.2641C278.011 50.3441 279.099 55.1441 281.275 58.6641C283.515 62.1201 286.363 63.8481 289.819 63.8481C293.339 63.8481 296.219 62.9521 298.459 61.1601C300.699 59.3681 302.235 56.8081 303.067 53.4801L304.891 53.8641C304.123 57.7681 302.363 60.8081 299.611 62.9841C296.859 65.0961 293.691 66.1521 290.107 66.1521C284.539 66.1521 279.899 64.2001 276.187 60.2961C272.539 56.3921 270.715 51.0801 270.715 44.3601C270.715 37.5761 272.571 32.2321 276.283 28.3281C279.995 24.3601 284.603 22.3761 290.107 22.3761ZM297.787 36.4881C297.787 28.6161 294.843 24.6801 288.955 24.6801C286.011 24.6801 283.483 26.2801 281.371 29.4801C279.323 32.6801 278.235 36.7441 278.107 41.6721H297.403C297.659 39.4961 297.787 37.7681 297.787 36.4881Z"/>
          <path d="M312.61 6.24806V4.52006H336.994C345.122 4.52006 351.746 7.20807 356.866 12.5841C361.986 17.9601 364.546 25.3521 364.546 34.7601C364.546 44.1681 361.986 51.5601 356.866 56.9361C351.746 62.3121 345.122 65.0001 336.994 65.0001H312.61V63.2721H317.122C318.018 63.2721 318.466 62.8881 318.466 62.1201V7.40007C318.466 6.63206 318.018 6.24806 317.122 6.24806H312.61ZM336.994 7.20806H326.338V62.3121H336.994C342.498 62.3121 347.106 59.8481 350.818 54.9201C354.53 49.9921 356.386 43.2721 356.386 34.7601C356.386 26.2481 354.53 19.5281 350.818 14.6001C347.106 9.67207 342.498 7.20806 336.994 7.20806Z"/>
          <path d="M391.169 22.3761C395.586 22.3761 399.074 23.8481 401.634 26.7921C404.194 29.7361 405.474 34.0561 405.474 39.7521C405.474 40.9041 405.409 42.1841 405.281 43.5921H379.073V44.2641C379.073 50.3441 380.161 55.1441 382.337 58.6641C384.577 62.1201 387.426 63.8481 390.882 63.8481C394.401 63.8481 397.282 62.9521 399.522 61.1601C401.762 59.3681 403.297 56.8081 404.129 53.4801L405.953 53.8641C405.185 57.7681 403.425 60.8081 400.673 62.9841C397.921 65.0961 394.753 66.1521 391.169 66.1521C385.602 66.1521 380.962 64.2001 377.25 60.2961C373.602 56.3921 371.777 51.0801 371.777 44.3601C371.777 37.5761 373.633 32.2321 377.345 28.3281C381.057 24.3601 385.665 22.3761 391.169 22.3761ZM398.849 36.4881C398.849 28.6161 395.905 24.6801 390.017 24.6801C387.073 24.6801 384.546 26.2801 382.434 29.4801C380.385 32.6801 379.297 36.7441 379.169 41.6721H398.466C398.722 39.4961 398.849 37.7681 398.849 36.4881Z"/>
          <path d="M438.152 23.5281H450.345V25.2561H446.793C446.217 25.2561 445.769 25.7041 445.449 26.6001L431.145 65.0001H428.552L414.249 26.6001C413.928 25.7041 413.48 25.2561 412.905 25.2561H409.353V23.5281H425.673V25.2561H420.872L431.913 55.5921L443.048 25.2561H438.152V23.5281Z"/>
          <path d="M472.638 22.3761C477.054 22.3761 480.542 23.8481 483.102 26.7921C485.662 29.7361 486.942 34.0561 486.942 39.7521C486.942 40.9041 486.878 42.1841 486.75 43.5921H460.542V44.2641C460.542 50.3441 461.63 55.1441 463.806 58.6641C466.046 62.1201 468.894 63.8481 472.35 63.8481C475.87 63.8481 478.75 62.9521 480.99 61.1601C483.23 59.3681 484.766 56.8081 485.598 53.4801L487.422 53.8641C486.654 57.7681 484.894 60.8081 482.142 62.9841C479.39 65.0961 476.222 66.1521 472.638 66.1521C467.07 66.1521 462.43 64.2001 458.718 60.2961C455.07 56.3921 453.246 51.0801 453.246 44.3601C453.246 37.5761 455.102 32.2321 458.814 28.3281C462.526 24.3601 467.134 22.3761 472.638 22.3761ZM480.318 36.4881C480.318 28.6161 477.374 24.6801 471.486 24.6801C468.542 24.6801 466.014 26.2801 463.902 29.4801C461.854 32.6801 460.766 36.7441 460.638 41.6721H479.934C480.19 39.4961 480.318 37.7681 480.318 36.4881Z"/>
          <path d="M500.517 61.9281V5.86406C500.517 4.96806 500.069 4.52006 499.173 4.52006H494.661V2.79207H499.365C503.205 2.79207 505.893 2.60007 507.429 2.21606V61.9281C507.429 62.8241 507.877 63.2721 508.773 63.2721H513.285V65.0001H494.661V63.2721H499.173C500.069 63.2721 500.517 62.8241 500.517 61.9281Z"/>
          <path d="M525.372 60.2961C521.788 56.3921 519.996 51.0481 519.996 44.2641C519.996 37.4801 521.788 32.1361 525.372 28.2321C528.956 24.3281 533.628 22.3761 539.388 22.3761C545.148 22.3761 549.82 24.3281 553.404 28.2321C557.052 32.1361 558.876 37.4801 558.876 44.2641C558.876 51.0481 557.052 56.3921 553.404 60.2961C549.82 64.2001 545.148 66.1521 539.388 66.1521C533.628 66.1521 528.956 64.2001 525.372 60.2961ZM530.748 29.8641C528.444 33.3841 527.292 38.1841 527.292 44.2641C527.292 50.3441 528.444 55.1761 530.748 58.7601C533.052 62.2801 535.932 64.0401 539.388 64.0401C542.844 64.0401 545.724 62.2801 548.028 58.7601C550.396 55.1761 551.58 50.3441 551.58 44.2641C551.58 38.1841 550.396 33.3841 548.028 29.8641C545.724 26.2801 542.844 24.4881 539.388 24.4881C535.932 24.4881 533.052 26.2801 530.748 29.8641Z"/>
          <path d="M571.486 82.6641V26.6001C571.486 25.7041 571.038 25.2561 570.142 25.2561H565.63V23.5281H570.334C574.174 23.5281 576.862 23.3361 578.398 22.9521V36.3921C579.486 31.7841 581.214 28.2961 583.582 25.9281C586.014 23.5601 588.702 22.3761 591.646 22.3761C595.678 22.3761 599.23 24.3921 602.302 28.4241C605.374 32.4561 606.91 37.8001 606.91 44.4561C606.91 51.1121 605.15 56.3921 601.63 60.2961C598.174 64.2001 593.63 66.1521 587.998 66.1521C584.478 66.1521 581.278 65.2881 578.398 63.5601V82.6641C578.398 83.5601 578.846 84.0081 579.742 84.0081H586.174V85.7361H565.63V84.0081H570.142C571.038 84.0081 571.486 83.5601 571.486 82.6641ZM599.614 44.6481C599.614 38.6961 598.686 34.1201 596.83 30.9201C594.974 27.6561 592.606 26.0241 589.726 26.0241C586.91 26.0241 584.318 27.9121 581.95 31.6881C579.582 35.4641 578.398 40.9041 578.398 48.0081V60.9681C581.214 62.8241 584.286 63.7521 587.614 63.7521C591.006 63.7521 593.854 62.0561 596.158 58.6641C598.462 55.2721 599.614 50.6001 599.614 44.6481Z"/>
          <path d="M633.982 22.3761C638.398 22.3761 641.886 23.8481 644.446 26.7921C647.006 29.7361 648.286 34.0561 648.286 39.7521C648.286 40.9041 648.222 42.1841 648.094 43.5921H621.886V44.2641C621.886 50.3441 622.974 55.1441 625.15 58.6641C627.39 62.1201 630.238 63.8481 633.694 63.8481C637.214 63.8481 640.094 62.9521 642.334 61.1601C644.574 59.3681 646.11 56.8081 646.942 53.4801L648.766 53.8641C647.998 57.7681 646.238 60.8081 643.486 62.9841C640.734 65.0961 637.566 66.1521 633.982 66.1521C628.414 66.1521 623.774 64.2001 620.062 60.2961C616.414 56.3921 614.59 51.0801 614.59 44.3601C614.59 37.5761 616.446 32.2321 620.158 28.3281C623.87 24.3601 628.478 22.3761 633.982 22.3761ZM641.662 36.4881C641.662 28.6161 638.718 24.6801 632.83 24.6801C629.886 24.6801 627.358 26.2801 625.246 29.4801C623.198 32.6801 622.11 36.7441 621.982 41.6721H641.278C641.534 39.4961 641.662 37.7681 641.662 36.4881Z"/>
          <path d="M681.445 22.3761C683.941 22.3761 685.957 23.4321 687.493 25.5441C689.093 27.6561 689.893 30.3121 689.893 33.5121C689.893 36.7121 688.581 38.3121 685.957 38.3121C684.421 38.3121 683.173 37.8321 682.213 36.8721C683.045 35.0161 683.461 33.1281 683.461 31.2081C683.461 27.8161 682.053 26.1201 679.237 26.1201C676.869 26.1201 674.757 28.1041 672.901 32.0721C671.109 35.9761 670.213 41.6721 670.213 49.1601V61.9281C670.213 62.8241 670.661 63.2721 671.557 63.2721H677.989V65.0001H657.445V63.2721H661.957C662.853 63.2721 663.301 62.8241 663.301 61.9281V26.6001C663.301 25.7041 662.853 25.2561 661.957 25.2561H657.445V23.5281H662.149C665.989 23.5281 668.677 23.3361 670.213 22.9521V35.2401C671.237 30.8241 672.741 27.5921 674.725 25.5441C676.709 23.4321 678.949 22.3761 681.445 22.3761Z"/>
          </mask>
          <path d="M45.904 65.0001L45.808 63.6561C45.744 62.3121 45.232 61.6401 44.272 61.6401C43.76 61.6401 42.832 61.9921 41.488 62.6961C37.328 65.0001 33.136 66.1521 28.912 66.1521C20.848 66.1521 14.224 63.3681 9.03999 57.8001C3.91999 52.2321 1.35999 44.5841 1.35999 34.8561C1.35999 25.0641 3.88798 17.3841 8.94399 11.8161C14.064 6.18407 20.72 3.36807 28.912 3.36807C33.072 3.36807 37.232 4.42407 41.392 6.53607C42.736 7.24006 43.696 7.59206 44.272 7.59206C45.232 7.59206 45.744 6.92006 45.808 5.57607L45.904 3.94407H47.728V20.5521H46C45.424 15.6241 43.568 12.0081 40.432 9.70407C37.36 7.33607 33.52 6.15207 28.912 6.15207C23.088 6.15207 18.384 8.71206 14.8 13.8321C11.28 18.9521 9.51999 25.9601 9.51999 34.8561C9.51999 43.7521 11.312 50.7281 14.896 55.7841C18.48 60.8401 23.152 63.3681 28.912 63.3681C33.52 63.3681 37.36 62.2161 40.432 59.9121C43.568 57.5441 45.424 53.8961 46 48.9681H47.728V65.0001H45.904Z" stroke="#270808" stroke-width="2" mask="url(#path-1-outside-1_25_25)"/>
          <path d="M80.4137 22.3761C82.9097 22.3761 84.9257 23.4321 86.4617 25.5441C88.0617 27.6561 88.8617 30.3121 88.8617 33.5121C88.8617 36.7121 87.5497 38.3121 84.9257 38.3121C83.3897 38.3121 82.1417 37.8321 81.1817 36.8721C82.0137 35.0161 82.4297 33.1281 82.4297 31.2081C82.4297 27.8161 81.0217 26.1201 78.2057 26.1201C75.8377 26.1201 73.7257 28.1041 71.8697 32.0721C70.0777 35.9761 69.1817 41.6721 69.1817 49.1601V61.9281C69.1817 62.8241 69.6297 63.2721 70.5257 63.2721H76.9577V65.0001H56.4137V63.2721H60.9257C61.8217 63.2721 62.2697 62.8241 62.2697 61.9281V26.6001C62.2697 25.7041 61.8217 25.2561 60.9257 25.2561H56.4137V23.5281H61.1177C64.9577 23.5281 67.6457 23.3361 69.1817 22.9521V35.2401C70.2057 30.8241 71.7097 27.5921 73.6937 25.5441C75.6777 23.4321 77.9177 22.3761 80.4137 22.3761Z" stroke="#270808" stroke-width="2" mask="url(#path-1-outside-1_25_25)"/>
          <path d="M112.544 22.3761C116.96 22.3761 120.448 23.8481 123.008 26.7921C125.568 29.7361 126.848 34.0561 126.848 39.7521C126.848 40.9041 126.784 42.1841 126.656 43.5921H100.448V44.2641C100.448 50.3441 101.536 55.1441 103.712 58.6641C105.952 62.1201 108.8 63.8481 112.256 63.8481C115.776 63.8481 118.656 62.9521 120.896 61.1601C123.136 59.3681 124.672 56.8081 125.504 53.4801L127.328 53.8641C126.56 57.7681 124.8 60.8081 122.048 62.9841C119.296 65.0961 116.128 66.1521 112.544 66.1521C106.976 66.1521 102.336 64.2001 98.6245 60.2961C94.9765 56.3921 93.1525 51.0801 93.1525 44.3601C93.1525 37.5761 95.0085 32.2321 98.7205 28.3281C102.432 24.3601 107.04 22.3761 112.544 22.3761ZM120.224 36.4881C120.224 28.6161 117.28 24.6801 111.392 24.6801C108.448 24.6801 105.92 26.2801 103.808 29.4801C101.76 32.6801 100.672 36.7441 100.544 41.6721H119.84C120.096 39.4961 120.224 37.7681 120.224 36.4881Z" stroke="#270808" stroke-width="2" mask="url(#path-1-outside-1_25_25)"/>
          <path d="M159.143 42.6321L159.239 39.2721V35.9121C159.239 28.4241 156.807 24.6801 151.943 24.6801C149.831 24.6801 148.167 25.4161 146.951 26.8881C145.799 28.2961 145.223 29.9601 145.223 31.8801C145.223 33.8001 145.479 35.4641 145.991 36.8721C144.903 37.8321 143.399 38.3121 141.479 38.3121C139.559 38.3121 138.599 36.7441 138.599 33.6081C138.599 30.4721 139.815 27.8161 142.247 25.6401C144.743 23.4641 148.263 22.3761 152.807 22.3761C161.703 22.3761 166.151 27.6241 166.151 38.1201V57.8001C166.151 61.2561 167.111 62.9841 169.031 62.9841C169.927 62.9841 170.695 62.5681 171.335 61.7361C172.039 60.9041 172.391 59.9441 172.391 58.8561C172.391 57.7681 172.295 56.7441 172.103 55.7841L173.927 55.4961C174.183 56.4561 174.311 57.5121 174.311 58.6641C174.311 60.9681 173.607 62.7921 172.199 64.1361C170.855 65.4801 169.063 66.1521 166.823 66.1521C164.583 66.1521 162.759 65.2561 161.351 63.4641C159.943 61.6081 159.239 58.8561 159.239 55.2081V53.4801C158.151 57.8321 156.423 61.0321 154.055 63.0801C151.687 65.1281 148.935 66.1521 145.799 66.1521C142.727 66.1521 140.231 65.1921 138.311 63.2721C136.455 61.2881 135.527 58.6961 135.527 55.4961C135.527 52.2321 137.031 49.3521 140.039 46.8561C143.047 44.2961 147.367 43.0161 152.999 43.0161C154.215 43.0161 156.263 43.1761 159.143 43.4961V42.6321ZM148.007 62.5041C150.695 62.5041 153.095 61.0001 155.207 57.9921C157.383 54.9201 158.663 50.6321 159.047 45.1281C158.407 45.0641 157.511 45.0321 156.359 45.0321C151.239 45.0321 147.559 46.1201 145.319 48.2961C143.143 50.4081 142.055 52.8721 142.055 55.6881C142.055 57.5441 142.599 59.1441 143.687 60.4881C144.775 61.8321 146.215 62.5041 148.007 62.5041Z" stroke="#270808" stroke-width="2" mask="url(#path-1-outside-1_25_25)"/>
          <path d="M188.998 13.3521H190.438V23.5281H200.038V25.2561H190.438V57.8001C190.438 61.2561 191.398 62.9841 193.318 62.9841C194.214 62.9841 194.982 62.5681 195.622 61.7361C196.326 60.9041 196.678 59.9441 196.678 58.8561C196.678 57.7681 196.582 56.7441 196.39 55.7841L198.214 55.4961C198.47 56.4561 198.598 57.5121 198.598 58.6641C198.598 60.9681 197.894 62.7921 196.486 64.1361C195.142 65.4801 193.35 66.1521 191.11 66.1521C188.87 66.1521 187.046 65.2561 185.638 63.4641C184.23 61.6081 183.526 58.8561 183.526 55.2081V26.6001C183.526 25.7041 183.078 25.2561 182.182 25.2561H177.67V23.5281H182.374C184.422 23.5281 186.63 20.1361 188.998 13.3521Z" stroke="#270808" stroke-width="2" mask="url(#path-1-outside-1_25_25)"/>
          <path d="M212.176 61.9281V26.6001C212.176 25.7041 211.728 25.2561 210.832 25.2561H206.32V23.5281H211.024C214.864 23.5281 217.552 23.3361 219.088 22.9521V62.1201C219.088 62.8881 219.536 63.2721 220.432 63.2721H224.944V65.0001H206.32V63.2721H210.832C211.728 63.2721 212.176 62.8241 212.176 61.9281ZM212.368 12.9681C211.536 12.0721 211.12 10.9841 211.12 9.70407C211.12 8.42407 211.536 7.36807 212.368 6.53607C213.264 5.64007 214.352 5.19207 215.632 5.19207C216.912 5.19207 217.968 5.64007 218.8 6.53607C219.696 7.36807 220.144 8.42407 220.144 9.70407C220.144 10.9841 219.696 12.0721 218.8 12.9681C217.968 13.8001 216.912 14.2161 215.632 14.2161C214.352 14.2161 213.264 13.8001 212.368 12.9681Z" stroke="#270808" stroke-width="2" mask="url(#path-1-outside-1_25_25)"/>
          <path d="M255.621 23.5281H267.813V25.2561H264.261C263.685 25.2561 263.237 25.7041 262.917 26.6001L248.613 65.0001H246.021L231.717 26.6001C231.397 25.7041 230.949 25.2561 230.373 25.2561H226.821V23.5281H243.141V25.2561H238.341L249.381 55.5921L260.517 25.2561H255.621V23.5281Z" stroke="#270808" stroke-width="2" mask="url(#path-1-outside-1_25_25)"/>
          <path d="M290.107 22.3761C294.523 22.3761 298.011 23.8481 300.571 26.7921C303.131 29.7361 304.411 34.0561 304.411 39.7521C304.411 40.9041 304.347 42.1841 304.219 43.5921H278.011V44.2641C278.011 50.3441 279.099 55.1441 281.275 58.6641C283.515 62.1201 286.363 63.8481 289.819 63.8481C293.339 63.8481 296.219 62.9521 298.459 61.1601C300.699 59.3681 302.235 56.8081 303.067 53.4801L304.891 53.8641C304.123 57.7681 302.363 60.8081 299.611 62.9841C296.859 65.0961 293.691 66.1521 290.107 66.1521C284.539 66.1521 279.899 64.2001 276.187 60.2961C272.539 56.3921 270.715 51.0801 270.715 44.3601C270.715 37.5761 272.571 32.2321 276.283 28.3281C279.995 24.3601 284.603 22.3761 290.107 22.3761ZM297.787 36.4881C297.787 28.6161 294.843 24.6801 288.955 24.6801C286.011 24.6801 283.483 26.2801 281.371 29.4801C279.323 32.6801 278.235 36.7441 278.107 41.6721H297.403C297.659 39.4961 297.787 37.7681 297.787 36.4881Z" stroke="#270808" stroke-width="2" mask="url(#path-1-outside-1_25_25)"/>
          <path d="M312.61 6.24806V4.52006H336.994C345.122 4.52006 351.746 7.20807 356.866 12.5841C361.986 17.9601 364.546 25.3521 364.546 34.7601C364.546 44.1681 361.986 51.5601 356.866 56.9361C351.746 62.3121 345.122 65.0001 336.994 65.0001H312.61V63.2721H317.122C318.018 63.2721 318.466 62.8881 318.466 62.1201V7.40007C318.466 6.63206 318.018 6.24806 317.122 6.24806H312.61ZM336.994 7.20806H326.338V62.3121H336.994C342.498 62.3121 347.106 59.8481 350.818 54.9201C354.53 49.9921 356.386 43.2721 356.386 34.7601C356.386 26.2481 354.53 19.5281 350.818 14.6001C347.106 9.67207 342.498 7.20806 336.994 7.20806Z" stroke="#270808" stroke-width="2" mask="url(#path-1-outside-1_25_25)"/>
          <path d="M391.169 22.3761C395.586 22.3761 399.074 23.8481 401.634 26.7921C404.194 29.7361 405.474 34.0561 405.474 39.7521C405.474 40.9041 405.409 42.1841 405.281 43.5921H379.073V44.2641C379.073 50.3441 380.161 55.1441 382.337 58.6641C384.577 62.1201 387.426 63.8481 390.882 63.8481C394.401 63.8481 397.282 62.9521 399.522 61.1601C401.762 59.3681 403.297 56.8081 404.129 53.4801L405.953 53.8641C405.185 57.7681 403.425 60.8081 400.673 62.9841C397.921 65.0961 394.753 66.1521 391.169 66.1521C385.602 66.1521 380.962 64.2001 377.25 60.2961C373.602 56.3921 371.777 51.0801 371.777 44.3601C371.777 37.5761 373.633 32.2321 377.345 28.3281C381.057 24.3601 385.665 22.3761 391.169 22.3761ZM398.849 36.4881C398.849 28.6161 395.905 24.6801 390.017 24.6801C387.073 24.6801 384.546 26.2801 382.434 29.4801C380.385 32.6801 379.297 36.7441 379.169 41.6721H398.466C398.722 39.4961 398.849 37.7681 398.849 36.4881Z" stroke="#270808" stroke-width="2" mask="url(#path-1-outside-1_25_25)"/>
          <path d="M438.152 23.5281H450.345V25.2561H446.793C446.217 25.2561 445.769 25.7041 445.449 26.6001L431.145 65.0001H428.552L414.249 26.6001C413.928 25.7041 413.48 25.2561 412.905 25.2561H409.353V23.5281H425.673V25.2561H420.872L431.913 55.5921L443.048 25.2561H438.152V23.5281Z" stroke="#270808" stroke-width="2" mask="url(#path-1-outside-1_25_25)"/>
          <path d="M472.638 22.3761C477.054 22.3761 480.542 23.8481 483.102 26.7921C485.662 29.7361 486.942 34.0561 486.942 39.7521C486.942 40.9041 486.878 42.1841 486.75 43.5921H460.542V44.2641C460.542 50.3441 461.63 55.1441 463.806 58.6641C466.046 62.1201 468.894 63.8481 472.35 63.8481C475.87 63.8481 478.75 62.9521 480.99 61.1601C483.23 59.3681 484.766 56.8081 485.598 53.4801L487.422 53.8641C486.654 57.7681 484.894 60.8081 482.142 62.9841C479.39 65.0961 476.222 66.1521 472.638 66.1521C467.07 66.1521 462.43 64.2001 458.718 60.2961C455.07 56.3921 453.246 51.0801 453.246 44.3601C453.246 37.5761 455.102 32.2321 458.814 28.3281C462.526 24.3601 467.134 22.3761 472.638 22.3761ZM480.318 36.4881C480.318 28.6161 477.374 24.6801 471.486 24.6801C468.542 24.6801 466.014 26.2801 463.902 29.4801C461.854 32.6801 460.766 36.7441 460.638 41.6721H479.934C480.19 39.4961 480.318 37.7681 480.318 36.4881Z" stroke="#270808" stroke-width="2" mask="url(#path-1-outside-1_25_25)"/>
          <path d="M500.517 61.9281V5.86406C500.517 4.96806 500.069 4.52006 499.173 4.52006H494.661V2.79207H499.365C503.205 2.79207 505.893 2.60007 507.429 2.21606V61.9281C507.429 62.8241 507.877 63.2721 508.773 63.2721H513.285V65.0001H494.661V63.2721H499.173C500.069 63.2721 500.517 62.8241 500.517 61.9281Z" stroke="#270808" stroke-width="2" mask="url(#path-1-outside-1_25_25)"/>
          <path d="M525.372 60.2961C521.788 56.3921 519.996 51.0481 519.996 44.2641C519.996 37.4801 521.788 32.1361 525.372 28.2321C528.956 24.3281 533.628 22.3761 539.388 22.3761C545.148 22.3761 549.82 24.3281 553.404 28.2321C557.052 32.1361 558.876 37.4801 558.876 44.2641C558.876 51.0481 557.052 56.3921 553.404 60.2961C549.82 64.2001 545.148 66.1521 539.388 66.1521C533.628 66.1521 528.956 64.2001 525.372 60.2961ZM530.748 29.8641C528.444 33.3841 527.292 38.1841 527.292 44.2641C527.292 50.3441 528.444 55.1761 530.748 58.7601C533.052 62.2801 535.932 64.0401 539.388 64.0401C542.844 64.0401 545.724 62.2801 548.028 58.7601C550.396 55.1761 551.58 50.3441 551.58 44.2641C551.58 38.1841 550.396 33.3841 548.028 29.8641C545.724 26.2801 542.844 24.4881 539.388 24.4881C535.932 24.4881 533.052 26.2801 530.748 29.8641Z" stroke="#270808" stroke-width="2" mask="url(#path-1-outside-1_25_25)"/>
          <path d="M571.486 82.6641V26.6001C571.486 25.7041 571.038 25.2561 570.142 25.2561H565.63V23.5281H570.334C574.174 23.5281 576.862 23.3361 578.398 22.9521V36.3921C579.486 31.7841 581.214 28.2961 583.582 25.9281C586.014 23.5601 588.702 22.3761 591.646 22.3761C595.678 22.3761 599.23 24.3921 602.302 28.4241C605.374 32.4561 606.91 37.8001 606.91 44.4561C606.91 51.1121 605.15 56.3921 601.63 60.2961C598.174 64.2001 593.63 66.1521 587.998 66.1521C584.478 66.1521 581.278 65.2881 578.398 63.5601V82.6641C578.398 83.5601 578.846 84.0081 579.742 84.0081H586.174V85.7361H565.63V84.0081H570.142C571.038 84.0081 571.486 83.5601 571.486 82.6641ZM599.614 44.6481C599.614 38.6961 598.686 34.1201 596.83 30.9201C594.974 27.6561 592.606 26.0241 589.726 26.0241C586.91 26.0241 584.318 27.9121 581.95 31.6881C579.582 35.4641 578.398 40.9041 578.398 48.0081V60.9681C581.214 62.8241 584.286 63.7521 587.614 63.7521C591.006 63.7521 593.854 62.0561 596.158 58.6641C598.462 55.2721 599.614 50.6001 599.614 44.6481Z" stroke="#270808" stroke-width="2" mask="url(#path-1-outside-1_25_25)"/>
          <path d="M633.982 22.3761C638.398 22.3761 641.886 23.8481 644.446 26.7921C647.006 29.7361 648.286 34.0561 648.286 39.7521C648.286 40.9041 648.222 42.1841 648.094 43.5921H621.886V44.2641C621.886 50.3441 622.974 55.1441 625.15 58.6641C627.39 62.1201 630.238 63.8481 633.694 63.8481C637.214 63.8481 640.094 62.9521 642.334 61.1601C644.574 59.3681 646.11 56.8081 646.942 53.4801L648.766 53.8641C647.998 57.7681 646.238 60.8081 643.486 62.9841C640.734 65.0961 637.566 66.1521 633.982 66.1521C628.414 66.1521 623.774 64.2001 620.062 60.2961C616.414 56.3921 614.59 51.0801 614.59 44.3601C614.59 37.5761 616.446 32.2321 620.158 28.3281C623.87 24.3601 628.478 22.3761 633.982 22.3761ZM641.662 36.4881C641.662 28.6161 638.718 24.6801 632.83 24.6801C629.886 24.6801 627.358 26.2801 625.246 29.4801C623.198 32.6801 622.11 36.7441 621.982 41.6721H641.278C641.534 39.4961 641.662 37.7681 641.662 36.4881Z" stroke="#270808" stroke-width="2" mask="url(#path-1-outside-1_25_25)"/>
          <path d="M681.445 22.3761C683.941 22.3761 685.957 23.4321 687.493 25.5441C689.093 27.6561 689.893 30.3121 689.893 33.5121C689.893 36.7121 688.581 38.3121 685.957 38.3121C684.421 38.3121 683.173 37.8321 682.213 36.8721C683.045 35.0161 683.461 33.1281 683.461 31.2081C683.461 27.8161 682.053 26.1201 679.237 26.1201C676.869 26.1201 674.757 28.1041 672.901 32.0721C671.109 35.9761 670.213 41.6721 670.213 49.1601V61.9281C670.213 62.8241 670.661 63.2721 671.557 63.2721H677.989V65.0001H657.445V63.2721H661.957C662.853 63.2721 663.301 62.8241 663.301 61.9281V26.6001C663.301 25.7041 662.853 25.2561 661.957 25.2561H657.445V23.5281H662.149C665.989 23.5281 668.677 23.3361 670.213 22.9521V35.2401C671.237 30.8241 672.741 27.5921 674.725 25.5441C676.709 23.4321 678.949 22.3761 681.445 22.3761Z" stroke="#270808" stroke-width="2" mask="url(#path-1-outside-1_25_25)"/>
          </svg>